<svg t="1576130673608" class="icon" viewBox="0 0 1024 1024" version="1.1" xmlns="http://www.w3.org/2000/svg" p-id="2373" width="32" height="32"><path d="M192 516.48l-98.56-44.373333c-67.776-30.464-67.626667-103.146667 0-133.546667l339.093333-152.618667c45.290667-20.373333 113.706667-20.352 158.933334 0l339.114666 152.597334c67.754667 30.506667 67.584 103.168 0 133.589333L832 516.48v176.853333c0 98.410667-145.6 160-320 160S192 791.744 192 693.333333v-176.853333z m554.666667 38.4l-155.2 69.845333c-45.290667 20.373333-113.706667 20.352-158.933334 0L277.333333 554.88v138.453333c0 10.197333 17.557333 27.733333 55.189334 43.669334C378.602667 756.501333 442.858667 768 512 768c69.12 0 133.397333-11.52 179.477333-30.997333C729.109333 721.088 746.666667 703.509333 746.666667 693.333333v-138.453333z m-190.208-291.114667c-22.976-10.346667-65.898667-10.368-88.917334 0L152.96 405.333333l314.602667 141.568c22.976 10.346667 65.898667 10.368 88.917333 0L871.04 405.333333l-314.602667-141.568z" fill="" p-id="2374"></path></svg>