<svg t="1576130858709" class="icon" viewBox="0 0 1024 1024" version="1.1" xmlns="http://www.w3.org/2000/svg" p-id="3867" width="32" height="32"><path d="M248.832 434.688c15.36 0 29.696-2.048 44.032-5.632 1.024 1.024 1.024 2.048 2.048 3.072L359.424 496.64c5.12 5.12 11.264 7.168 17.92 7.168 6.656 0 12.8-2.56 17.92-7.168 9.728-9.728 9.728-25.6 0-35.328L342.528 409.088c13.312-7.68 25.6-17.408 36.864-28.16 5.12-5.12 9.728-10.752 14.336-15.872l53.76 53.76c5.12 5.12 11.264 7.168 17.92 7.168 6.656 0 12.8-2.56 17.92-7.168 9.728-9.728 9.728-25.6 0-35.328L419.84 320c9.216-22.016 13.824-45.568 13.824-70.144 0-49.152-19.456-95.744-54.272-130.56-37.888-37.888-90.624-57.344-144.896-53.248-9.728 0.512-18.432 7.168-21.504 16.384-3.584 9.216-1.024 19.456 5.632 26.624l32.768 32.768c14.848 14.848 23.04 34.816 23.04 55.808 0 20.992-8.192 40.96-23.04 55.808-29.696 29.696-81.92 29.696-111.616 0L107.52 220.16c-7.168-7.168-17.408-9.216-26.624-5.632-9.216 3.584-15.36 11.776-16.384 21.504-4.096 53.76 15.36 106.496 53.248 144.896 35.328 34.816 81.408 53.76 131.072 53.76zM196.096 326.144c34.304 0 67.072-13.312 91.136-37.888 24.576-24.576 37.888-56.832 37.888-91.136 0-25.088-7.168-49.152-20.48-69.632 14.336 6.656 28.16 15.872 39.424 27.648 25.6 25.6 39.424 59.392 39.424 95.232 0 35.84-13.824 69.632-39.424 95.232-25.6 25.6-59.392 39.424-95.232 39.424-35.84 0-69.632-13.824-95.232-39.424-11.776-11.776-20.992-25.088-27.136-39.424 20.48 12.8 44.544 19.968 69.632 19.968z m706.56 313.856c-34.816-34.816-81.408-54.272-130.56-54.272-25.088 0-49.152 5.12-71.68 14.336l-119.808-119.808 201.728-207.36c23.04-14.336 45.056-36.352 50.688-49.664 5.632-13.824 7.68-28.16 5.12-30.72l-10.752-10.752c-3.072-3.072-16.896-0.512-30.72 5.12s-36.352 28.672-50.176 51.712l-342.528 352.768-84.48-8.704c-7.68-0.512-14.848 2.048-19.968 7.168-18.432 17.92-176.128 178.688-182.784 185.344-41.984 41.984-44.032 92.16-5.632 134.144 18.944 20.48 43.008 31.744 70.144 32.768h2.56c31.744 0 59.904-14.336 74.752-29.184C321.024 847.36 419.84 745.472 435.2 733.184c10.752-8.704 12.288-24.576 3.584-35.328-8.704-10.752-24.576-12.288-35.328-3.584-22.528 18.432-165.888 166.912-181.76 183.296-6.144 6.144-22.528 15.36-40.448 14.336-13.312-0.512-24.576-5.632-34.304-16.384-13.312-14.848-25.6-35.84 4.096-65.024 1.536-1.536 136.192-138.24 174.08-176.64l84.48 8.704c7.68 0.512 15.36-2.048 20.48-7.68l32.768-33.792 128.512 128c-3.072 13.312-4.608 27.136-4.608 41.472 0 49.152 19.456 95.744 54.272 130.56 34.816 34.816 81.408 54.272 130.56 54.272 4.608 0 9.216 0 14.336-0.512 9.728-0.512 18.432-7.168 21.504-16.384 3.584-9.216 1.024-19.456-5.632-26.624l-32.768-32.768c-30.72-30.72-30.72-80.896 0-111.616 29.696-29.696 81.92-29.696 111.616 0l32.768 32.768c6.656 7.168 17.408 9.216 26.624 5.632 9.216-3.584 15.36-11.776 16.384-21.504 3.584-53.248-15.872-105.984-53.76-144.384z m-403.968-74.752l47.104-48.64 110.08 110.08c-5.12 4.096-10.24 8.704-14.848 13.312-11.776 11.776-21.504 24.576-29.184 38.4l-113.152-113.152z m326.144 129.536c-34.304 0-67.072 13.312-91.136 37.888-43.52 43.52-49.664 111.104-17.408 161.28-14.848-6.656-28.16-15.872-39.424-27.648-25.6-25.6-39.424-59.392-39.424-95.232 0-35.84 13.824-69.632 39.424-95.232 25.6-25.6 59.392-39.424 95.232-39.424 35.84 0 69.632 13.824 95.232 39.424 11.776 11.776 20.992 25.088 27.136 39.424-20.48-13.312-44.544-20.48-69.632-20.48z" p-id="3868"></path></svg>